HIERARCHY
ROOT Hips
{
	OFFSET 0.000000 0.000000 0.000000
	CHANNELS 6 Xposition Yposition Zposition Xrotation Yrotation Zrotation
	JOINT C_ctrl
	{
		OFFSET 0.000000 35.040482 -0.000011
		CHANNELS 3 Xrotation Yrotation Zrotation
		JOINT Bip01
		{
			OFFSET -41.537640 41.789009 -0.000007
			CHANNELS 3 Xrotation Yrotation Zrotation
			JOINT Bip01_Pelvis
			{
				OFFSET -2.462887 0.000000 0.000000
				CHANNELS 3 Xrotation Yrotation Zrotation
				JOINT BN_Tail_01
				{
					OFFSET -11.399368 7.351341 -0.000013
					CHANNELS 3 Xrotation Yrotation Zrotation
					JOINT BN_Tail_02
					{
						OFFSET -11.365196 -0.343025 0.000012
						CHANNELS 3 Xrotation Yrotation Zrotation
						JOINT BN_Tail_03
						{
							OFFSET -15.076256 -0.454979 0.000017
							CHANNELS 3 Xrotation Yrotation Zrotation
							JOINT BN_Tail_04
							{
								OFFSET -17.395691 -0.525002 0.000016
								CHANNELS 3 Xrotation Yrotation Zrotation
								JOINT BN_Tail_05
								{
									OFFSET -16.699837 -0.504005 0.000016
									CHANNELS 3 Xrotation Yrotation Zrotation
									End Site
									{
										OFFSET 0.503998 -16.699829 0.000067
									}
								}
							}
						}
					}
				}
				JOINT Bip01_Spine
				{
					OFFSET 8.297798 5.916809 -0.000020
					CHANNELS 3 Xrotation Yrotation Zrotation
					JOINT Bip01_R_Thigh
					{
						OFFSET -8.297779 -5.916794 10.541781
						CHANNELS 3 Xrotation Yrotation Zrotation
						JOINT Bip01_R_Calf
						{
							OFFSET 5.631542 -22.906792 0.862690
							CHANNELS 3 Xrotation Yrotation Zrotation
							JOINT Bip01_R_HorseLink
							{
								OFFSET -16.984341 -19.231926 -3.555767
								CHANNELS 3 Xrotation Yrotation Zrotation
								JOINT Bip01_R_Foot
								{
									OFFSET 4.290367 -24.783146 0.578056
									CHANNELS 3 Xrotation Yrotation Zrotation
									JOINT Bip01_R_Toe0
									{
										OFFSET 3.561211 -5.815116 0.760802
										CHANNELS 3 Xrotation Yrotation Zrotation
										JOINT Bip01_R_Toe0Nub
										{
											OFFSET 16.135469 0.002017 1.534789
											CHANNELS 3 Xrotation Yrotation Zrotation
											End Site
											{
												OFFSET -0.000002 16.208284 -0.000056
											}
										}
									}
								}
							}
						}
					}
					JOINT Bip01_L_Thigh
					{
						OFFSET -8.297813 -5.916832 -10.541739
						CHANNELS 3 Xrotation Yrotation Zrotation
						JOINT Bip01_L_Calf
						{
							OFFSET 5.631535 -22.906792 -0.862625
							CHANNELS 3 Xrotation Yrotation Zrotation
							JOINT Bip01_L_HorseLink
							{
								OFFSET -16.984318 -19.231949 3.555875
								CHANNELS 3 Xrotation Yrotation Zrotation
								JOINT Bip01_L_Foot
								{
									OFFSET 4.290367 -24.783169 -0.577965
									CHANNELS 3 Xrotation Yrotation Zrotation
									JOINT Bip01_L_Toe0
									{
										OFFSET 3.561245 -5.815111 -0.760799
										CHANNELS 3 Xrotation Yrotation Zrotation
										JOINT Bip01_L_Toe0Nub
										{
											OFFSET 6.574303 -0.000005 -1.538561
											CHANNELS 3 Xrotation Yrotation Zrotation
											End Site
											{
												OFFSET 0.000004 -6.751935 0.000023
											}
										}
									}
								}
							}
						}
					}
					JOINT Bip01_Spine1
					{
						OFFSET 20.556803 -4.626213 -0.000025
						CHANNELS 3 Xrotation Yrotation Zrotation
						JOINT Saddle
						{
							OFFSET 17.608810 18.174690 -0.000143
							CHANNELS 3 Xrotation Yrotation Zrotation
							End Site
							{
								OFFSET -0.000063 -0.000061 -22.448387
							}
						}
						JOINT BN_center
						{
							OFFSET 10.743275 -13.417107 -0.172041
							CHANNELS 3 Xrotation Yrotation Zrotation
							End Site
							{
								OFFSET 22.434088 0.553078 -0.579614
							}
						}
						JOINT Bip01_Spine2
						{
							OFFSET 24.765072 -2.054115 -0.000032
							CHANNELS 3 Xrotation Yrotation Zrotation
							JOINT Handle
							{
								OFFSET 63.735676 16.430748 -16.052464
								CHANNELS 3 Xrotation Yrotation Zrotation
								JOINT IK_Chain01
								{
									OFFSET -4.713058 -6.020439 0.185448
									CHANNELS 3 Xrotation Yrotation Zrotation
									End Site
									{
										OFFSET -0.000023 -0.000023 -7.648071
									}
								}
							}
							JOINT BN_hair04_01
							{
								OFFSET 1.987491 16.256981 -2.049672
								CHANNELS 3 Xrotation Yrotation Zrotation
								JOINT BN_hair04_02
								{
									OFFSET -1.318762 -3.831451 -6.174704
									CHANNELS 3 Xrotation Yrotation Zrotation
									JOINT BN_hair04_03
									{
										OFFSET -0.827490 -5.886627 -5.656666
										CHANNELS 3 Xrotation Yrotation Zrotation
										End Site
										{
											OFFSET -2.658262 5.010620 -5.929780
										}
									}
								}
							}
							JOINT Bip01_Neck
							{
								OFFSET 25.574577 9.433014 -0.000084
								CHANNELS 3 Xrotation Yrotation Zrotation
								JOINT Bip01_R_Clavicle
								{
									OFFSET -16.535652 0.011192 6.705692
									CHANNELS 3 Xrotation Yrotation Zrotation
									JOINT Bip01_R_UpperArm
									{
										OFFSET 20.272621 -12.959984 2.510816
										CHANNELS 3 Xrotation Yrotation Zrotation
										JOINT Bip01_R_Forearm
										{
											OFFSET -13.633509 -15.503704 -0.653585
											CHANNELS 3 Xrotation Yrotation Zrotation
											JOINT Bip01_R_Hand
											{
												OFFSET 2.580030 -27.804676 -1.136415
												CHANNELS 3 Xrotation Yrotation Zrotation
												JOINT Bip01_R_Finger0
												{
													OFFSET -0.281744 -19.659061 -0.398649
													CHANNELS 3 Xrotation Yrotation Zrotation
													JOINT Bip01_Xtra02
													{
														OFFSET 4.152210 -5.712314 0.433813
														CHANNELS 3 Xrotation Yrotation Zrotation
														JOINT Bip01_Xtra02Nub
														{
															OFFSET 15.457960 0.041654 0.507982
															CHANNELS 3 Xrotation Yrotation Zrotation
															End Site
															{
																OFFSET -15.421730 -0.157725 -1.163459
															}
														}
													}
													JOINT Bip01_R_Finger0Nub
													{
														OFFSET 8.362326 -9.718440 -0.143142
														CHANNELS 3 Xrotation Yrotation Zrotation
														End Site
														{
															OFFSET -1.213036 -0.198171 9.872291
														}
													}
												}
											}
										}
									}
								}
								JOINT Bip01_L_Clavicle
								{
									OFFSET -16.535673 0.011162 -6.705583
									CHANNELS 3 Xrotation Yrotation Zrotation
									JOINT Bip01_L_UpperArm
									{
										OFFSET 20.272615 -12.959999 -2.510836
										CHANNELS 3 Xrotation Yrotation Zrotation
										JOINT Bip01_L_Forearm
										{
											OFFSET -13.633495 -15.503681 0.653678
											CHANNELS 3 Xrotation Yrotation Zrotation
											JOINT Bip01_L_Hand
											{
												OFFSET 2.579988 -27.804686 1.136487
												CHANNELS 3 Xrotation Yrotation Zrotation
												JOINT Bip01_L_Finger0
												{
													OFFSET -0.281765 -19.659058 0.398696
													CHANNELS 3 Xrotation Yrotation Zrotation
													JOINT Bip01_Xtra01
													{
														OFFSET 4.083549 -5.738758 -0.666714
														CHANNELS 3 Xrotation Yrotation Zrotation
														JOINT Bip01_Xtra01Nub
														{
															OFFSET 6.758158 -0.395525 -0.023239
															CHANNELS 3 Xrotation Yrotation Zrotation
															End Site
															{
																OFFSET 6.764923 -0.254147 -0.029908
															}
														}
													}
													JOINT Bip01_L_Finger0Nub
													{
														OFFSET -0.012636 -9.629153 0.045740
														CHANNELS 3 Xrotation Yrotation Zrotation
														End Site
														{
															OFFSET 0.988407 0.004791 8.293357
														}
													}
												}
											}
										}
									}
								}
								JOINT BN_hair03_01
								{
									OFFSET -5.894140 16.270622 -2.498433
									CHANNELS 3 Xrotation Yrotation Zrotation
									JOINT BN_hair03_02
									{
										OFFSET -0.189278 -7.800507 -6.219162
										CHANNELS 3 Xrotation Yrotation Zrotation
										JOINT BN_hair03_03
										{
											OFFSET 0.612345 -10.844475 -3.370718
											CHANNELS 3 Xrotation Yrotation Zrotation
											End Site
											{
												OFFSET -2.273296 2.862007 -10.769416
											}
										}
									}
								}
								JOINT Bip01_Neck1
								{
									OFFSET 9.383755 11.908699 -0.000007
									CHANNELS 3 Xrotation Yrotation Zrotation
									JOINT BN_hair02_01
									{
										OFFSET 9.126320 18.808022 -1.420810
										CHANNELS 3 Xrotation Yrotation Zrotation
										JOINT BN_hair02_02
										{
											OFFSET 0.393478 -5.181091 -5.248574
											CHANNELS 3 Xrotation Yrotation Zrotation
											JOINT BN_hair02_03
											{
												OFFSET 0.762280 -8.167076 -0.230047
												CHANNELS 3 Xrotation Yrotation Zrotation
												End Site
												{
													OFFSET -0.025837 -1.251419 -8.109770
												}
											}
										}
									}
									JOINT Bip01_Head
									{
										OFFSET 14.266129 10.475403 -0.000008
										CHANNELS 3 Xrotation Yrotation Zrotation
										JOINT BN_Reins_01
										{
											OFFSET 18.547455 -15.740112 -0.000035
											CHANNELS 3 Xrotation Yrotation Zrotation
											JOINT BN_Reins_02
											{
												OFFSET -5.372810 -5.884506 0.000028
												CHANNELS 3 Xrotation Yrotation Zrotation
												JOINT BN_Reins_03
												{
													OFFSET -6.395866 -15.947449 0.000070
													CHANNELS 3 Xrotation Yrotation Zrotation
													JOINT BN_Halter_R_01
													{
														OFFSET -1.234055 -3.096100 7.096737
														CHANNELS 3 Xrotation Yrotation Zrotation
														End Site
														{
															OFFSET 10.514435 -4.176861 -0.000004
														}
													}
													JOINT BN_Halter_L_01
													{
														OFFSET -1.234062 -3.096146 -7.096726
														CHANNELS 3 Xrotation Yrotation Zrotation
														End Site
														{
															OFFSET -10.514435 4.176865 -0.000000
														}
													}
													JOINT BN_Reins_04
													{
														OFFSET -6.737644 -16.971684 0.000074
														CHANNELS 3 Xrotation Yrotation Zrotation
														JOINT BN_Halter_R_02
														{
															OFFSET -4.688869 -11.781956 7.096771
															CHANNELS 3 Xrotation Yrotation Zrotation
															End Site
															{
																OFFSET 14.669624 -5.827511 -0.000006
															}
														}
														JOINT BN_Halter_L_02
														{
															OFFSET -4.688892 -11.782017 -7.096693
															CHANNELS 3 Xrotation Yrotation Zrotation
															End Site
															{
																OFFSET -14.669624 5.827507 -0.000002
															}
														}
														JOINT BN_Reins_05
														{
															OFFSET -6.822578 -16.971161 0.000074
															CHANNELS 3 Xrotation Yrotation Zrotation
															JOINT BN_Reins_06
															{
																OFFSET -6.140354 -15.095148 0.000066
																CHANNELS 3 Xrotation Yrotation Zrotation
																End Site
																{
																	OFFSET -15.095150 6.140352 -0.000002
																}
															}
														}
													}
												}
											}
										}
										JOINT BN_hair01_01
										{
											OFFSET 8.957344 8.870956 0.112121
											CHANNELS 3 Xrotation Yrotation Zrotation
											JOINT BN_hair01_02
											{
												OFFSET 6.002075 -2.962952 -3.121264
												CHANNELS 3 Xrotation Yrotation Zrotation
												End Site
												{
													OFFSET 5.917702 3.813591 -2.232396
												}
											}
										}
										JOINT BN_Eyebrow_R
										{
											OFFSET 11.795959 -0.430496 4.449781
											CHANNELS 3 Xrotation Yrotation Zrotation
											JOINT Bip01_Xtra06Nub
											{
												OFFSET 2.936661 -0.262573 3.246701
												CHANNELS 3 Xrotation Yrotation Zrotation
												End Site
												{
													OFFSET 2.768745 0.208199 3.394807
												}
											}
										}
										JOINT BN_Eyebrow_L
										{
											OFFSET 11.586395 -0.445618 -4.441728
											CHANNELS 3 Xrotation Yrotation Zrotation
											JOINT Bip01_Xtra05Nub
											{
												OFFSET 3.244698 -0.349442 -4.416700
												CHANNELS 3 Xrotation Yrotation Zrotation
												End Site
												{
													OFFSET 3.053162 0.072495 -4.564033
												}
											}
										}
										JOINT Bip01_R_Ear_01
										{
											OFFSET 7.142960 7.567184 4.311657
											CHANNELS 3 Xrotation Yrotation Zrotation
											JOINT Bip01_Xtra04Nub
											{
												OFFSET 9.464531 9.264214 1.682953
												CHANNELS 3 Xrotation Yrotation Zrotation
												End Site
												{
													OFFSET 8.448181 10.159340 1.910823
												}
											}
										}
										JOINT Bip01__L_Ear_01
										{
											OFFSET 7.214943 7.717056 -4.356771
											CHANNELS 3 Xrotation Yrotation Zrotation
											JOINT Bip01_Xtra03Nub
											{
												OFFSET 9.230225 8.944366 -2.322746
												CHANNELS 3 Xrotation Yrotation Zrotation
												End Site
												{
													OFFSET 8.170288 9.841324 -2.643566
												}
											}
										}
										JOINT Bip01_Jaw
										{
											OFFSET 9.196068 -4.110695 -0.000013
											CHANNELS 3 Xrotation Yrotation Zrotation
											JOINT Bip01_Ponytail1Nub
											{
												OFFSET 10.976463 -21.082108 -0.000053
												CHANNELS 3 Xrotation Yrotation Zrotation
												End Site
												{
													OFFSET 11.247093 -20.938980 0.000113
												}
											}
										}
										JOINT Bip01_HeadNub
										{
											OFFSET 29.954575 -18.249489 -0.000063
											CHANNELS 3 Xrotation Yrotation Zrotation
											End Site
											{
												OFFSET -9.198448 -13.366348 0.000168
											}
										}
									}
								}
							}
						}
					}
				}
			}
		}
	}
}
MOTION
Frames: 4
Frame Time: 0.033333
0.000000 0.000000 0.000000 0.000008 0.000000 -0.000000 -0.000000 0.000000 -0.000000 0.000000 0.000000 -0.000006 -4.375074 -1.044475 -0.268657 -2.996162 2.721318 36.272867 1.966219 -4.790370 20.656478 2.039845 -5.965677 18.404457 0.707543 -5.888257 6.081256 0.244130 -4.109474 -0.339882 1.779859 3.572121 2.281853 4.317386 2.204251 0.183894 0.574477 0.016852 -2.911614 0.445765 0.015648 -2.259505 -3.838259 -5.213834 9.508135 1.415259 -0.082160 -6.639273 -0.000006 -0.000139 0.000027 3.142698 -4.943679 8.625085 -6.248091 1.481576 -32.930196 6.683636 2.650084 36.944886 -6.270763 5.341628 -43.040061 -0.000073 0.000036 -0.000036 0.008780 -0.000564 0.038582 1.747929 -3.153830 0.099700 0.742065 0.544918 -2.038603 -2.897536 -0.250313 0.083974 1.854323 1.249650 -0.070450 0.000078 -0.000112 -0.000055 -0.000047 -0.041853 0.027948 -0.000051 0.000017 0.000020 6.612639 11.512006 -15.509073 4.975584 5.266174 -6.968497 5.627751 -12.890858 9.508460 -3.620523 12.561764 -14.860507 0.310583 0.138387 -2.113992 0.217099 -1.064840 26.740687 -0.389088 0.930524 -41.524914 5.055350 -2.753728 -55.185241 -1.353257 3.861540 5.945703 -0.781869 0.140346 -0.478796 -0.804181 0.123492 -0.482651 -3.522475 14.046757 -11.200582 0.104195 -0.974556 8.671238 0.001091 0.099992 2.437794 -0.635110 -0.192115 6.249002 -0.607080 -0.263159 -17.264152 -0.829179 0.156015 2.005114 0.036614 0.063792 2.451861 -0.000960 0.100646 2.451942 -0.000392 -0.000067 0.000207 0.165035 0.019418 -0.032654 1.479115 0.200476 -0.235683 -2.822223 -13.507304 -14.496260 1.981170 0.135709 0.008912 5.448701 0.536857 -1.212724 5.664804 0.429354 -1.441533 -16.560818 -13.937063 -54.881110 -0.000001 0.000414 48.557471 11.852331 13.394621 -30.627664 0.000534 0.001540 -45.542011 -0.000021 -0.000029 -1.797736 0.000010 -0.000035 -2.378453 0.000735 0.002309 -71.027205 -23.901952 -11.933119 -2.566482 34.949217 16.671935 -5.206542 0.000314 0.000980 -47.312372 0.000025 0.000011 -0.000020 -1.413891 -3.201994 2.435127 -8.178374 -3.406569 -1.196628 0.000063 -0.000072 0.000040 0.018756 -0.023295 11.778595 0.000070 -0.000035 0.000007 0.023211 -0.032327 11.716006 0.885429 1.335098 -11.105689 0.050261 0.015074 11.755995 -1.290212 -1.929239 -11.270265 0.038935 0.011455 11.744832 -0.000038 0.000032 -0.000024 -0.003508 -0.040864 11.750686 0.000057 -0.000027 11.750677 
0.000000 0.000000 0.000000 0.000008 0.000000 -0.000000 -0.000000 0.000000 -0.000000 0.000000 0.000000 -0.000006 -4.751129 -0.505066 -0.081146 -2.996163 2.721317 36.272881 1.828097 -4.334587 21.298690 1.950703 -5.736475 18.355913 0.643487 -6.249835 5.063650 -0.060194 -5.599366 -3.672385 2.059933 3.227213 2.057459 4.384807 1.714873 0.648889 0.308942 0.012693 -1.566333 0.290736 0.012206 -1.473961 -3.493627 -4.719351 6.403547 1.286438 -0.067854 -6.032734 -0.000006 -0.000138 0.000027 3.169157 -5.710239 5.686900 -5.785728 1.230950 -30.277528 6.169574 2.242532 33.645297 -6.734695 5.888771 -41.902893 -0.000074 0.000036 -0.000034 0.008779 -0.000569 0.038580 1.686777 -3.295793 0.102580 0.878361 0.441082 -1.817322 -2.897606 -0.250316 0.084001 1.865460 0.781766 -0.056279 0.000078 -0.000112 -0.000056 -0.000047 -0.041853 0.027948 -0.000084 0.000008 -0.000012 6.612645 11.512008 -15.509071 4.975591 5.266169 -6.968496 5.639155 -12.904248 9.450644 -3.693462 12.238655 -16.869309 0.507916 0.868135 -0.567366 0.152397 -0.911409 22.678965 -0.720549 1.023488 -37.427104 5.051482 -2.430092 -50.906998 -1.353208 3.861758 5.945700 -0.781897 0.140345 -0.478790 -0.804181 0.123491 -0.482651 -3.552823 13.955137 -10.500649 0.289609 -0.293649 10.893271 0.001170 0.061680 1.503751 -0.912446 -0.040648 4.016191 -0.382633 -0.373286 -16.274077 -0.829055 0.156010 2.005105 0.036642 0.063792 2.451860 -0.000960 0.100645 2.451942 -0.000096 -0.000023 0.000162 0.585888 0.064388 -0.102795 1.624096 0.219820 -0.259096 -2.519016 -13.383550 -14.490386 2.380038 0.173169 0.000794 5.713238 0.578033 -1.767347 6.530926 0.397859 -2.503825 -16.840436 -13.651231 -54.630360 -0.000004 0.000413 47.326340 11.278224 13.343158 -29.213703 0.000535 0.001540 -45.583159 -0.000021 -0.000028 -1.797734 0.000008 -0.000034 -2.378449 0.000734 0.002310 -71.093554 -23.901950 -11.933117 -2.566484 34.949214 16.671930 -5.206543 0.000306 0.000983 -47.351454 0.000025 0.000009 -0.000022 -1.174875 -2.729829 2.979459 -7.188492 -3.155807 -0.769868 0.000060 -0.000073 0.000037 0.018764 -0.023282 11.778617 0.000054 -0.000053 0.000012 0.023227 -0.032326 11.715982 0.885426 1.335099 -11.105686 0.050279 0.015099 11.756001 -1.290216 -1.929238 -11.270268 0.038945 0.011479 11.744825 -0.000042 0.000033 -0.000024 -0.003508 -0.040863 11.750686 0.000053 -0.000025 11.750679 
0.000000 0.000000 0.000000 0.000008 0.000000 -0.000000 -0.000000 0.000000 -0.000000 0.000000 0.000000 -0.000006 -4.999917 0.000001 -0.000013 -2.996163 2.721317 36.272881 1.687727 -3.889208 21.929133 1.890422 -5.502487 18.581108 0.574303 -6.603243 4.064691 -0.444503 -7.040716 -6.957121 2.296715 2.846705 1.845544 4.378612 1.318461 1.118764 0.000442 0.000022 -0.002266 0.179454 0.008427 -0.909938 -3.099227 -4.271519 3.295374 1.139026 -0.053175 -5.339445 -0.000006 -0.000139 0.000027 3.117555 -6.613858 2.264737 -4.986503 0.859755 -25.827937 5.219419 1.604395 27.879319 -7.683051 6.816521 -41.951148 -0.000074 0.000035 -0.000038 0.008778 -0.000565 0.038579 1.552796 -3.333218 0.097486 1.012381 0.339804 -1.600104 -2.897466 -0.250324 0.083968 1.807635 0.217340 -0.038058 0.000078 -0.000112 -0.000056 -0.000047 -0.041853 0.027948 -0.000105 -0.000001 -0.000006 6.612640 11.512007 -15.509073 4.975595 5.266171 -6.968498 5.669569 -12.939557 9.299321 -3.783054 12.091586 -17.802050 0.855150 1.490505 0.463985 0.090314 -0.725209 17.891259 -1.220984 1.219970 -32.239801 4.803226 -1.684688 -41.292848 -1.353230 3.861760 5.945697 -0.781924 0.140345 -0.478797 -0.804180 0.123492 -0.482655 -3.620620 13.890277 -9.750942 0.428554 0.405421 12.208466 0.001137 0.094930 2.314380 -1.022100 0.053487 1.500948 -0.230384 -0.447819 -15.956545 -0.829207 0.156065 2.005120 0.036669 0.063793 2.451860 -0.000960 0.100645 2.451941 -0.000098 -0.000027 0.000164 0.998627 0.107985 -0.171898 1.732080 0.234189 -0.276561 -2.173042 -13.284991 -14.481854 2.771133 0.209852 -0.007417 5.973015 0.615949 -2.311384 7.380589 0.335865 -3.543816 -17.114738 -13.374666 -54.155836 0.000005 0.000404 45.531165 10.592286 13.370902 -27.316700 0.000536 0.001540 -45.598978 -0.000020 -0.000030 -1.797738 0.000013 -0.000036 -2.378450 0.000728 0.002312 -71.119174 -23.901950 -11.933117 -2.566484 34.949241 16.671928 -5.206564 0.000305 0.000985 -47.366737 0.000022 0.000008 -0.000020 -0.947962 -2.274550 3.641823 -6.219918 -2.902713 -0.355734 0.000062 -0.000078 0.000039 0.018785 -0.023280 11.778637 0.000058 -0.000053 0.000011 0.023243 -0.032324 11.715956 0.885429 1.335096 -11.105682 0.050284 0.015125 11.756001 -1.290212 -1.929242 -11.270269 0.038956 0.011502 11.744824 -0.000038 0.000030 -0.000022 -0.003505 -0.040865 11.750683 0.000058 -0.000030 11.750680 
0.000000 0.000000 0.000000 0.000008 0.000000 -0.000000 -0.000000 0.000000 -0.000000 0.000000 0.000000 -0.000006 -5.030832 0.596456 -0.106382 -2.996164 2.721318 36.272881 1.543365 -3.443292 22.675757 1.711331 -4.887226 19.100185 0.536746 -6.349884 3.952317 -0.688458 -6.956741 -9.100120 2.378684 2.322267 1.750224 4.302463 0.993992 1.656596 -0.321975 -0.022256 1.634770 0.090825 0.004641 -0.460618 -2.677106 -3.841560 0.155062 0.971664 -0.038689 -4.553239 -0.000006 -0.000139 0.000027 2.952121 -7.558427 -1.276806 -3.986448 0.495775 -20.447348 3.949661 0.946165 20.659367 -8.822652 7.773656 -42.011537 -0.000075 0.000035 -0.000035 0.008779 -0.000567 0.038582 1.359356 -3.284644 0.086127 1.148122 0.238033 -1.380493 -2.897473 -0.250324 0.083968 1.693365 -0.424945 -0.018386 0.000078 -0.000112 -0.000056 -0.000047 -0.041853 0.027948 -0.000175 -0.000014 0.000010 6.612637 11.512009 -15.509073 4.975590 5.266170 -6.968495 5.715958 -12.992639 9.074133 -3.884090 12.062686 -18.009913 1.345744 2.037836 1.388090 0.034577 -0.484337 11.859971 -1.909902 1.451202 -25.490587 4.112766 -0.635938 -26.407178 -1.353206 3.861757 5.945704 -0.781978 0.140346 -0.478797 -0.804181 0.123494 -0.482648 -3.717996 13.874888 -9.135482 0.785400 1.133232 13.961730 0.000363 0.012701 0.309495 -1.188054 0.232029 2.953519 -0.197487 -0.490634 -16.452565 -0.829164 0.155998 2.005133 0.036724 0.063793 2.451859 -0.000960 0.100645 2.451942 -0.000132 -0.000033 0.000128 1.341356 0.143800 -0.229510 1.841128 0.248679 -0.294242 -1.792871 -13.207367 -14.471369 3.144133 0.244779 -0.015481 6.177778 0.635915 -2.357744 8.237886 0.242028 -4.591456 -17.389197 -13.107413 -53.504205 0.000007 0.000399 43.289992 9.818881 13.443296 -25.029303 0.000959 0.001370 -45.594156 -0.000022 -0.000029 -1.797736 0.000009 -0.000035 -2.378450 0.000955 0.002222 -71.111319 -23.901952 -11.933115 -2.566482 34.949241 16.671925 -5.206562 0.000586 0.000874 -47.362062 0.000025 0.000011 -0.000019 -0.735181 -1.830306 4.397561 -5.243835 -2.640118 0.057990 0.000067 -0.000077 0.000044 0.018821 -0.023276 11.778684 0.000059 -0.000056 0.000006 0.023269 -0.032321 11.715914 0.885429 1.335098 -11.105689 0.050316 0.015171 11.756009 -1.290211 -1.929241 -11.270268 0.038982 0.011549 11.744810 -0.000038 0.000032 -0.000027 -0.003505 -0.040871 11.750680 0.000060 -0.000029 11.750671 
